# xmcd
# Track frame offsets:
# 150
# 12300
# 26063
# 54327
# 64710
# 77753
# 90013
# 103115
# 120568
# 136828
# 148103
# 160413
# 181255
# 192695
# 215653
# 230978
# 243173
# 257475
# 269345
# 286615
# 299862
#
# Disc length: 4230 seconds
# Revision: 0
# Processed by: cddbd v1.5.2PL0 Copyright (c) Steve Scherf et al.
# Submitted via: VisiTrax 2.10.3.257 - For more info visit www.synapsa.com
#
DISCID=36108415
DTITLE=Various Artist - Boot Scootin' 06
DYEAR=2009
DGENRE=Country
TTITLE0=Tracy Lawrence - Renegades, Rebels and Rogues
TTITLE1=Mel McDaniel - Baby's Got Her Blue Jeans On
TTITLE2=Bellamy Brothers - Rip Off The Kob (Dance)
TTITLE3=Ken Mellons - Rub-A-Dubbin'
TTITLE4=John Michael Montgomery - Be My Baby Tonight
TTITLE5=Tammy Wynette - Stand By Your Man
TTITLE6=George Strait - Lovebug
TTITLE7=Trisha Yearwood - She's In Love With The Boy
TTITLE8=Mark Chestnutt - Wrong Place, Wrong Time
TTITLE9=Hank Williams, Jr. - Texas Women
TTITLE10=Charlie Rich - The Most Beautiful Girl
TTITLE11=Sawyer Brown - Six Days On The Road (Club Mix)
TTITLE12=Willie Nelson - The Party's Over
TTITLE13=Joe Diffie - Third Rock From The Sun
TTITLE14=Tim Mensy - This Ol' Heart
TTITLE15=Oak Ridge Boys - Elvira
TTITLE16=Rick Trevino - Doctor Time
TTITLE17=Steve Earle - Guitar Town
TTITLE18=Tracy Byrd - Holdin' Heaven
TTITLE19=George Strait - Blue Clear Sky
TTITLE20=Ray Price - For The Good Times
EXTD=
EXTT0=
EXTT1=
EXTT2=
EXTT3=
EXTT4=
EXTT5=
EXTT6=
EXTT7=
EXTT8=
EXTT9=
EXTT10=
EXTT11=
EXTT12=
EXTT13=
EXTT14=
EXTT15=
EXTT16=
EXTT17=
EXTT18=
EXTT19=
EXTT20=
PLAYORDER=
